<svg xmlns="http://www.w3.org/2000/svg" width="890" height="890" viewBox="0 0 890 890" fill="none"><g clip-path="url(#clip0_2003_344)">
<path fill-rule="evenodd" clip-rule="evenodd" d="M695 304.163C695 265.411 663.583 233.996 624.832 233.996H163.219C142.767 233.996 130.33 256.716 140.853 274.254L195.058 365.559V584.831C195.058 623.584 226.473 654.999 265.225 654.999H624.832C663.583 654.999 695 623.584 695 584.831V304.163ZM300.309 391.872C300.309 377.34 312.089 365.559 326.621 365.559H563.437C577.966 365.559 589.749 377.34 589.749 391.872C589.749 406.404 577.966 418.185 563.437 418.185H326.621C312.089 418.185 300.309 406.404 300.309 391.872ZM326.621 470.81C312.089 470.81 300.309 482.59 300.309 497.123C300.309 511.655 312.089 523.435 326.621 523.435H484.499C499.028 523.435 510.811 511.655 510.811 497.123C510.811 482.59 499.028 470.81 484.499 470.81H326.621Z" fill="#25D366"></path>
<rect x="210.841" y="257.753" width="468.215" height="375.294" rx="82.9977" fill="#25D366"></rect>
<path d="M371.44 505.77L366.22 488.31H322.84L317.62 505.77H276.94L322.12 381.93H368.38L413.56 505.77H371.44ZM331.12 460.59H357.94L344.98 416.49H344.26L331.12 460.59ZM497.998 381.93C505.678 381.93 512.518 383.73 518.518 387.33C524.518 390.81 529.198 395.67 532.558 401.91C535.918 408.03 537.598 414.93 537.598 422.61V424.95C537.598 432.63 535.918 439.59 532.558 445.83C529.198 452.07 524.518 456.99 518.518 460.59C512.518 464.07 505.678 465.81 497.998 465.81H468.298V505.77H428.518V381.93H497.998ZM468.298 436.83H484.678C488.878 436.83 491.998 435.75 494.038 433.59C496.198 431.43 497.278 428.49 497.278 424.77V423.33C497.278 419.49 496.198 416.55 494.038 414.51C491.998 412.35 488.878 411.27 484.678 411.27H468.298V436.83ZM560.18 505.77V381.93H599.96V505.77H560.18Z" fill="white"></path>
</g><defs>
<clipPath id="clip0_2003_344">
<rect width="890" height="890" fill="white"></rect>
</clipPath>
</defs></svg>