<svg xmlns:xlink="http://www.w3.org/1999/xlink" xmlns="http://www.w3.org/2000/svg" viewBox="0 0 24 24" height="200" width="200" preserveAspectRatio="xMidYMid meet" class="" fill="none"><title fill="none">id-grid-view</title><path fill="#000000" d="M5 11c-.55 0-1.02-.2-1.41-.59C3.19 10.02 3 9.55 3 9V5c0-.55.2-1.02.59-1.41C3.98 3.19 4.45 3 5 3h4c.55 0 1.02.2 1.41.59.4.39.59.86.59 1.41v4c0 .55-.2 1.02-.59 1.41-.39.4-.86.59-1.41.59H5Zm0 10c-.55 0-1.02-.2-1.41-.59-.4-.39-.59-.86-.59-1.41v-4c0-.55.2-1.02.59-1.41.39-.4.86-.59 1.41-.59h4c.55 0 1.02.2 1.41.59.4.39.59.86.59 1.41v4c0 .55-.2 1.02-.59 1.41-.39.4-.86.59-1.41.59H5Zm10-10c-.55 0-1.02-.2-1.41-.59-.4-.39-.59-.86-.59-1.41V5c0-.55.2-1.02.59-1.41.39-.4.86-.59 1.41-.59h4c.55 0 1.02.2 1.41.59.4.39.59.86.59 1.41v4c0 .55-.2 1.02-.59 1.41-.39.4-.86.59-1.41.59h-4Zm0 10c-.55 0-1.02-.2-1.41-.59-.4-.39-.59-.86-.59-1.41v-4c0-.55.2-1.02.59-1.41.39-.4.86-.59 1.41-.59h4c.55 0 1.02.2 1.41.59.4.39.59.86.59 1.41v4c0 .55-.2 1.02-.59 1.41-.39.4-.86.59-1.41.59h-4ZM5 9h4V5H5v4Zm10 0h4V5h-4v4Zm0 10h4v-4h-4v4ZM5 19h4v-4H5v4Z"></path></svg>